<svg width="512" height="512" viewBox="0 0 512 512" fill="none" xmlns="http://www.w3.org/2000/svg">
  <defs>
    <linearGradient id="grad" x1="0" y1="0" x2="512" y2="512" gradientUnits="userSpaceOnUse">
      <stop offset="0%" stop-color="#3b82f6" />
      <stop offset="100%" stop-color="#22d3ee" />
    </linearGradient>
  </defs>
  <rect width="512" height="512" rx="128" fill="url(#grad)" />
  <g transform="translate(100, 100) scale(13)" stroke="white" stroke-width="2" stroke-linecap="round" stroke-linejoin="round" fill="none">
    <path d="M12 5a3 3 0 1 0-5.997.125 4 4 0 0 0-2.526 5.77 4 4 0 0 0 .556 6.588A4 4 0 1 0 12 18Z"/>
    <path d="M9 13a4.5 4.5 0 0 0 3-4"/>
    <path d="M6.003 5.125A3 3 0 0 0 6.401 6.5"/>
    <path d="M3.477 10.896a4 4 0 0 1 .585-.396"/>
    <path d="M6 18a4 4 0 0 1-1.967-.516"/>
    <path d="M12 13h4"/>
    <path d="M12 18h6a2 2 0 0 1 2 2v1"/>
    <path d="M12 8h8"/>
    <path d="M16 8V5a2 2 0 0 1 2-2"/>
    <circle cx="16" cy="13" r=".5"/>
    <circle cx="18" cy="3" r=".5"/>
    <circle cx="20" cy="21" r=".5"/>
    <circle cx="20" cy="8" r=".5"/>
  </g>
</svg>